<svg width="229" height="98" viewBox="0 0 229 98" fill="none" xmlns="http://www.w3.org/2000/svg">
  <g filter="url(#filter0_ddii_13_1186)">
    <g clip-path="url(#clip0_13_1186)">
      <rect x="3" y="5" width="222.844" height="87.5672" rx="43.7836" fill="#3A8DCA" />
      <circle cx="47.0856" cy="49.6896" r="61.599" fill="white" fill-opacity="0.1" />
      <circle cx="47.0856" cy="49.0856" r="86.9633" fill="white" fill-opacity="0.1" />
      <circle cx="47.0856" cy="49.6896" r="114.743" fill="white" fill-opacity="0.1" />
      <path opacity="0.6" fill-rule="evenodd" clip-rule="evenodd"
        d="M222.654 49.1957C231.814 43.5644 237.922 33.4503 237.922 21.9096C237.922 4.23246 223.592 -10.0977 205.914 -10.0977C188.237 -10.0977 173.907 4.23246 173.907 21.9096C173.907 31.0592 177.746 39.3121 183.901 45.1453C183.074 45.9994 182.308 46.9129 181.609 47.8787C178.571 46.3334 175.133 45.4622 171.491 45.4622C160.54 45.4622 151.428 53.341 149.516 63.7397C145.639 59.2062 139.878 56.3326 133.445 56.3326C123.762 56.3326 115.599 62.8443 113.097 71.7278C110.144 69.6385 106.538 68.4108 102.645 68.4108C99.0178 68.4108 95.6391 69.477 92.8058 71.3132C89.0895 68.7223 84.5706 67.203 79.6968 67.203C67.0226 67.203 56.7482 77.4775 56.7482 90.1517C56.7482 102.826 67.0226 113.1 79.6968 113.1C87.1527 113.1 93.7782 109.545 97.97 104.037C99.4616 104.434 101.029 104.646 102.645 104.646C110.253 104.646 116.766 99.9563 119.451 93.3105C120.435 94.1809 121.501 94.9609 122.636 95.6376C122.595 96.2193 122.575 96.8065 122.575 97.3986C122.575 111.073 133.66 122.159 147.335 122.159C161.01 122.159 172.095 111.073 172.095 97.3986C172.095 94.8754 171.718 92.4403 171.016 90.1467C171.174 90.15 171.333 90.1517 171.491 90.1517C177.987 90.1517 183.836 87.3797 187.919 82.9542C191.856 85.5929 196.592 87.1321 201.687 87.1321C215.362 87.1321 226.447 76.0465 226.447 62.3717C226.447 57.5293 225.057 53.0115 222.654 49.1957ZM33.7995 108.269C46.4737 108.269 56.7482 97.9946 56.7482 85.3204C56.7482 72.6462 46.4737 62.3717 33.7995 62.3717C21.1253 62.3717 10.8509 72.6462 10.8509 85.3204C10.8509 97.9946 21.1253 108.269 33.7995 108.269Z"
        fill="#F3FDFF" />
      <path fill-rule="evenodd" clip-rule="evenodd"
        d="M233.639 51.5374C241.719 45.7275 246.98 36.2448 246.98 25.5331C246.98 7.85593 232.65 -6.47424 214.973 -6.47424C197.296 -6.47424 182.966 7.85593 182.966 25.5331C182.966 36.2448 188.228 45.7275 196.308 51.5374C193.893 54.3052 192.084 57.6149 191.087 61.26C187.55 58.9097 183.304 57.5404 178.738 57.5404C167.631 57.5404 158.416 65.6451 156.686 76.2634C156.588 76.2623 156.491 76.2617 156.394 76.2617C155.101 76.2617 153.831 76.3608 152.592 76.5518C148.858 70.5751 142.219 66.5991 134.653 66.5991C125.687 66.5991 118.026 72.181 114.953 80.0591C111.887 77.6788 108.036 76.2617 103.853 76.2617C99.2689 76.2617 95.0821 77.9644 91.891 80.772C87.7745 76.8545 82.2047 74.45 76.0734 74.45C69.7218 74.45 63.9729 77.0303 59.8177 81.2C56.0702 73.6221 48.261 68.4108 39.2347 68.4108C26.5605 68.4108 16.2861 78.6853 16.2861 91.3595C16.2861 104.034 26.5605 114.308 39.2347 114.308C45.5863 114.308 51.3352 111.728 55.4904 107.558C59.2379 115.136 67.047 120.347 76.0734 120.347C83.9892 120.347 90.969 116.339 95.0942 110.242C97.6902 111.679 100.676 112.496 103.853 112.496C110.8 112.496 116.834 108.587 119.874 102.847C123.289 106.188 127.833 108.38 132.879 108.8C136.14 118.664 145.436 125.782 156.394 125.782C169.706 125.782 180.565 115.276 181.131 102.103C189.792 101.181 196.975 95.3107 199.798 87.3732C203.989 90.6288 209.255 92.5673 214.973 92.5673C228.648 92.5673 239.734 81.4817 239.734 67.8069C239.734 61.5793 237.434 55.8886 233.639 51.5374Z"
        fill="#F3FDFF" />
      <g filter="url(#filter1_ddii_13_1186)">
        <circle cx="47.0856" cy="49.0857" r="36.2347" fill="#FED62E" />
      </g>
    </g>
  </g>
  <defs>
    <filter id="filter0_ddii_13_1186" x="0.584352" y="0.772616" width="227.675" height="96.6259"
      filterUnits="userSpaceOnUse" color-interpolation-filters="sRGB">
      <feFlood flood-opacity="0" result="BackgroundImageFix" />
      <feColorMatrix in="SourceAlpha" type="matrix" values="0 0 0 0 0 0 0 0 0 0 0 0 0 0 0 0 0 0 127 0"
        result="hardAlpha" />
      <feOffset dy="2.41565" />
      <feGaussianBlur stdDeviation="1.20782" />
      <feComposite in2="hardAlpha" operator="out" />
      <feColorMatrix type="matrix" values="0 0 0 0 1 0 0 0 0 1 0 0 0 0 1 0 0 0 0.94 0" />
      <feBlend mode="normal" in2="BackgroundImageFix" result="effect1_dropShadow_13_1186" />
      <feColorMatrix in="SourceAlpha" type="matrix" values="0 0 0 0 0 0 0 0 0 0 0 0 0 0 0 0 0 0 127 0"
        result="hardAlpha" />
      <feOffset dy="-1.81174" />
      <feGaussianBlur stdDeviation="1.20782" />
      <feComposite in2="hardAlpha" operator="out" />
      <feColorMatrix type="matrix" values="0 0 0 0 0 0 0 0 0 0 0 0 0 0 0 0 0 0 0.25 0" />
      <feBlend mode="normal" in2="effect1_dropShadow_13_1186" result="effect2_dropShadow_13_1186" />
      <feBlend mode="normal" in="SourceGraphic" in2="effect2_dropShadow_13_1186" result="shape" />
      <feColorMatrix in="SourceAlpha" type="matrix" values="0 0 0 0 0 0 0 0 0 0 0 0 0 0 0 0 0 0 127 0"
        result="hardAlpha" />
      <feOffset dy="4.22738" />
      <feGaussianBlur stdDeviation="2.7176" />
      <feComposite in2="hardAlpha" operator="arithmetic" k2="-1" k3="1" />
      <feColorMatrix type="matrix" values="0 0 0 0 0 0 0 0 0 0 0 0 0 0 0 0 0 0 0.25 0" />
      <feBlend mode="normal" in2="shape" result="effect3_innerShadow_13_1186" />
      <feColorMatrix in="SourceAlpha" type="matrix" values="0 0 0 0 0 0 0 0 0 0 0 0 0 0 0 0 0 0 127 0"
        result="hardAlpha" />
      <feOffset dy="0.603912" />
      <feGaussianBlur stdDeviation="3.92543" />
      <feComposite in2="hardAlpha" operator="arithmetic" k2="-1" k3="1" />
      <feColorMatrix type="matrix" values="0 0 0 0 0 0 0 0 0 0 0 0 0 0 0 0 0 0 0.25 0" />
      <feBlend mode="normal" in2="effect3_innerShadow_13_1186" result="effect4_innerShadow_13_1186" />
    </filter>
    <filter id="filter1_ddii_13_1186" x="8.43521" y="10.4353" width="82.132" height="83.9437"
      filterUnits="userSpaceOnUse" color-interpolation-filters="sRGB">
      <feFlood flood-opacity="0" result="BackgroundImageFix" />
      <feColorMatrix in="SourceAlpha" type="matrix" values="0 0 0 0 0 0 0 0 0 0 0 0 0 0 0 0 0 0 127 0"
        result="hardAlpha" />
      <feOffset dx="2.41565" dy="4.22738" />
      <feGaussianBlur stdDeviation="2.41565" />
      <feComposite in2="hardAlpha" operator="out" />
      <feColorMatrix type="matrix" values="0 0 0 0 0 0 0 0 0 0 0 0 0 0 0 0 0 0 0.25 0" />
      <feBlend mode="normal" in2="BackgroundImageFix" result="effect1_dropShadow_13_1186" />
      <feColorMatrix in="SourceAlpha" type="matrix" values="0 0 0 0 0 0 0 0 0 0 0 0 0 0 0 0 0 0 127 0"
        result="hardAlpha" />
      <feOffset dy="2.41565" />
      <feGaussianBlur stdDeviation="1.20782" />
      <feComposite in2="hardAlpha" operator="out" />
      <feColorMatrix type="matrix" values="0 0 0 0 0 0 0 0 0 0 0 0 0 0 0 0 0 0 0.25 0" />
      <feBlend mode="normal" in2="effect1_dropShadow_13_1186" result="effect2_dropShadow_13_1186" />
      <feBlend mode="normal" in="SourceGraphic" in2="effect2_dropShadow_13_1186" result="shape" />
      <feColorMatrix in="SourceAlpha" type="matrix" values="0 0 0 0 0 0 0 0 0 0 0 0 0 0 0 0 0 0 127 0"
        result="hardAlpha" />
      <feOffset dx="1.81174" dy="2.41565" />
      <feGaussianBlur stdDeviation="1.20782" />
      <feComposite in2="hardAlpha" operator="arithmetic" k2="-1" k3="1" />
      <feColorMatrix type="matrix" values="0 0 0 0 0.995677 0 0 0 0 1 0 0 0 0 0.930833 0 0 0 0.61 0" />
      <feBlend mode="normal" in2="shape" result="effect3_innerShadow_13_1186" />
      <feColorMatrix in="SourceAlpha" type="matrix" values="0 0 0 0 0 0 0 0 0 0 0 0 0 0 0 0 0 0 127 0"
        result="hardAlpha" />
      <feOffset dy="-3.01956" />
      <feGaussianBlur stdDeviation="1.20782" />
      <feComposite in2="hardAlpha" operator="arithmetic" k2="-1" k3="1" />
      <feColorMatrix type="matrix" values="0 0 0 0 0.704167 0 0 0 0 0.602266 0 0 0 0 0.174281 0 0 0 1 0" />
      <feBlend mode="normal" in2="effect3_innerShadow_13_1186" result="effect4_innerShadow_13_1186" />
    </filter>
    <clipPath id="clip0_13_1186">
      <rect x="3" y="5" width="222.844" height="87.5672" rx="43.7836" fill="white" />
    </clipPath>
  </defs>
</svg>